<svg xmlns="http://www.w3.org/2000/svg" width="60" height="60" viewBox="0 0 60 60"><defs><style>.a{fill:#13579a;}.b,.c{fill:none;}.c{stroke:#fff;stroke-linecap:round;stroke-linejoin:round;stroke-width:1.6px;}.d{fill:#fff;}.e,.f{stroke:none;}.f{fill:#13579a;}</style></defs><g class="a" transform="translate(8 8)"><path class="e" d="M 22.5 44.5 C 19.52980041503906 44.5 16.64871025085449 43.91838836669922 13.93675994873047 42.77133941650391 C 11.31707000732422 41.66329956054688 8.964249610900879 40.07695007324219 6.943649768829346 38.05635070800781 C 4.923049926757812 36.03573989868164 3.336699962615967 33.68291854858398 2.228660106658936 31.06324005126953 C 1.081609964370728 28.35128974914551 0.5 25.47019958496094 0.5 22.5 C 0.5 19.52980041503906 1.081609964370728 16.64871025085449 2.228660106658936 13.93675994873047 C 3.336699962615967 11.31707000732422 4.923049926757812 8.964249610900879 6.943649768829346 6.943649768829346 C 8.964249610900879 4.923049926757812 11.31707000732422 3.336699962615967 13.93675994873047 2.228660106658936 C 16.64871025085449 1.081609964370728 19.52980041503906 0.5 22.5 0.5 C 25.47019958496094 0.5 28.35128974914551 1.081609964370728 31.06324005126953 2.228660106658936 C 33.68291854858398 3.336699962615967 36.03573989868164 4.923049926757812 38.05635070800781 6.943649768829346 C 40.07695007324219 8.964249610900879 41.66329956054688 11.31707000732422 42.77133941650391 13.93675994873047 C 43.91838836669922 16.64871025085449 44.5 19.52980041503906 44.5 22.5 C 44.5 25.47019958496094 43.91838836669922 28.35128974914551 42.77133941650391 31.06324005126953 C 41.66329956054688 33.68291854858398 40.07695007324219 36.03573989868164 38.05635070800781 38.05635070800781 C 36.03573989868164 40.07695007324219 33.68291854858398 41.66329956054688 31.06324005126953 42.77133941650391 C 28.35128974914551 43.91838836669922 25.47019958496094 44.5 22.5 44.5 Z"/><path class="f" d="M 22.5 1 C 19.59708023071289 1 16.78152084350586 1.568321228027344 14.13154029846191 2.689170837402344 C 11.57144927978516 3.771991729736328 9.272048950195312 5.322360992431641 7.297199249267578 7.297199249267578 C 5.322360992431641 9.272048950195312 3.771991729736328 11.57144927978516 2.689170837402344 14.13154029846191 C 1.568321228027344 16.78152084350586 1 19.59708023071289 1 22.5 C 1 25.40291976928711 1.568321228027344 28.21847915649414 2.689170837402344 30.86845970153809 C 3.771991729736328 33.42855072021484 5.322360992431641 35.72795104980469 7.297199249267578 37.70278930664062 C 9.272048950195312 39.67763900756836 11.57144927978516 41.22800827026367 14.13154029846191 42.31082916259766 C 16.78152084350586 43.43167877197266 19.59708023071289 44 22.5 44 C 25.40291976928711 44 28.21847915649414 43.43167877197266 30.86845970153809 42.31082916259766 C 33.42855072021484 41.22800827026367 35.72795104980469 39.67763900756836 37.70278930664062 37.70278930664062 C 39.67763900756836 35.72795104980469 41.22800827026367 33.42855072021484 42.31082916259766 30.86845970153809 C 43.43167877197266 28.21847915649414 44 25.40291976928711 44 22.5 C 44 19.59708023071289 43.43167877197266 16.78152084350586 42.31082916259766 14.13154029846191 C 41.22800827026367 11.57144927978516 39.67763900756836 9.272048950195312 37.70278930664062 7.297199249267578 C 35.72795104980469 5.322360992431641 33.42855072021484 3.771991729736328 30.86845970153809 2.689170837402344 C 28.21847915649414 1.568321228027344 25.40291976928711 1 22.5 1 M 22.5 0 C 34.92639923095703 0 45 10.07358932495117 45 22.5 C 45 34.92639923095703 34.92639923095703 45 22.5 45 C 10.07358932495117 45 0 34.92639923095703 0 22.5 C 0 10.07358932495117 10.07358932495117 0 22.5 0 Z"/></g><rect class="b" width="60" height="60"/><g transform="translate(-267.897 -115.534)"><path class="c" d="M0,0H16.683a0,0,0,0,1,0,0V8.623a1.554,1.554,0,0,1-1.554,1.554H1.554A1.554,1.554,0,0,1,0,8.623V0A0,0,0,0,1,0,0Z" transform="translate(289.897 143.855)"/><path class="c" d="M0,0H16.683a0,0,0,0,1,0,0V2.8a1.554,1.554,0,0,1-1.554,1.554H1.554A1.554,1.554,0,0,1,0,2.8V0A0,0,0,0,1,0,0Z" transform="translate(306.58 143.855) rotate(180)"/><line class="c" y1="3.545" transform="translate(293.44 137.534)"/><line class="c" y1="3.545" transform="translate(303.037 137.534)"/><rect class="d" width="2.245" height="2.245" rx="0.496" transform="translate(292.183 146.044)"/><rect class="d" width="2.245" height="2.245" rx="0.496" transform="translate(295.442 146.044)"/><rect class="d" width="2.245" height="2.245" rx="0.496" transform="translate(298.7 146.044)"/><rect class="d" width="2.245" height="2.245" rx="0.496" transform="translate(292.183 149.337)"/><rect class="d" width="2.245" height="2.245" rx="0.496" transform="translate(295.442 149.337)"/><rect class="d" width="2.245" height="2.245" rx="0.496" transform="translate(298.7 149.337)"/><rect class="d" width="2.245" height="2.245" rx="0.496" transform="translate(301.959 146.044)"/></g></svg>