<svg xmlns="http://www.w3.org/2000/svg" width="30" height="30" viewBox="0 0 30 30"><defs><style>.a,.b{fill:none;}.b{stroke:#484848;stroke-linecap:round;stroke-linejoin:round;stroke-width:1.4px;}</style></defs><g transform="translate(-13.239 -280.783)"><rect class="a" width="30" height="30" transform="translate(13.239 280.783)"/></g><g transform="translate(-13.239 -280.783)"><path class="b" d="M23.231,298.536H21.2l-1.523,5.909H36.8l-1.523-5.909H33.246"/><path class="b" d="M28.239,285.909a5.558,5.558,0,0,0-5.552,5.553c0,3.8,4.969,9.377,5.181,9.613a.5.5,0,0,0,.743,0c.211-.236,5.18-5.814,5.18-9.613A5.558,5.558,0,0,0,28.239,285.909Zm0,7.68a2.128,2.128,0,1,1,2.129-2.128A2.129,2.129,0,0,1,28.239,293.589Z"/></g></svg>