<svg xmlns="http://www.w3.org/2000/svg" width="40" height="40" viewBox="0 0 40 40"><defs><style>.a,.c{fill:none;}.b{fill:#13579a;}.c{stroke:#13579a;stroke-linecap:round;stroke-miterlimit:10;stroke-width:1.6px;}</style></defs><rect class="a" width="40" height="40"/><g transform="translate(-93.541 -637.888)"><g transform="matrix(0.966, 0.259, -0.259, 0.966, 174.067, -7.109)"><path class="b" d="M101.727,659.26a1.139,1.139,0,0,0,1.133.99l6.406-.032-1.323,3.079a.946.946,0,0,0,.5,1.242.927.927,0,0,0,.378.077l2.477-.015a.948.948,0,0,0,.6-.218L117,660.176l8.03-.04a2.478,2.478,0,0,0,2.087-1.147,2.55,2.55,0,0,0,.178-2.437l-1.518-2.774a2.516,2.516,0,0,0-2.3-1.484l-17.558.1-3.892-1.869a1.053,1.053,0,0,0-1.062.158,1.116,1.116,0,0,0-.411,1.043Zm3.724-5.248,18.031-.038a.858.858,0,0,1,.786.554l1.507,2.74a.869.869,0,0,1-.076.812.8.8,0,0,1-.678.379l-8.345.043a.787.787,0,0,0-.5.182l-5.15,4.237-1.25.005,1.648-3.233a.8.8,0,0,0-.349-1.076.811.811,0,0,0-.368-.088l-7.385.037-.947-6.1Z"/><rect class="b" width="2.092" height="2.094" rx="0.438" transform="matrix(1, -0.004, 0.004, 1, 107.591, 655.222)"/><rect class="b" width="2.095" height="2.094" rx="0.438" transform="matrix(1, -0.004, 0.004, 1, 111.789, 655.201)"/><path class="b" d="M117.776,656.829l0-1.218a.439.439,0,0,0-.439-.436l-1.218,0a.438.438,0,0,0-.436.44h0l0,1.218a.437.437,0,0,0,.439.435l1.219,0A.439.439,0,0,0,117.776,656.829Z"/><rect class="b" width="2.091" height="2.094" rx="0.438" transform="matrix(1, -0.005, 0.005, 1, 119.603, 655.165)"/></g><line class="c" x2="24.278" transform="translate(102.028 668.258)"/></g></svg>