<svg xmlns="http://www.w3.org/2000/svg" width="50" height="50" viewBox="0 0 50 50"><defs><style>.a{fill:#13579a;}</style></defs><path class="a" d="M89.671,139.241a1.1,1.1,0,0,0-.949-.2l-5.2,1.339a1.1,1.1,0,0,0-.826,1.065v5.2a1.1,1.1,0,0,0,1.1,1.1,1.165,1.165,0,0,0,.275-.034l5.2-1.339a1.1,1.1,0,0,0,.825-1.066v-5.2A1.1,1.1,0,0,0,89.671,139.241ZM87.9,144.456l-3,.773V142.3l3-.772Z" transform="translate(-68.975 -131.069)"/><path class="a" d="M100.292,140.384l-5.2-1.339a1.1,1.1,0,0,0-1.374,1.065v5.2a1.1,1.1,0,0,0,.825,1.066l5.2,1.339a1.162,1.162,0,0,0,.274.034,1.1,1.1,0,0,0,1.1-1.1v-5.2A1.1,1.1,0,0,0,100.292,140.384Zm-1.374,4.846-3-.773V141.53l3,.772Z" transform="translate(-65.418 -131.069)"/><path class="a" d="M89.671,147.582a1.106,1.106,0,0,0-.949-.2l-5.2,1.339a1.1,1.1,0,0,0-.826,1.066v5.2a1.1,1.1,0,0,0,1.376,1.065l5.2-1.339a1.1,1.1,0,0,0,.825-1.066v-5.2A1.1,1.1,0,0,0,89.671,147.582ZM87.9,152.8l-3,.772v-2.927l3-.773Z" transform="translate(-68.975 -128.413)"/><path class="a" d="M100.292,148.725l-5.2-1.339a1.1,1.1,0,0,0-1.374,1.066v5.2a1.1,1.1,0,0,0,.825,1.066l5.2,1.339a1.11,1.11,0,0,0,.949-.2,1.1,1.1,0,0,0,.426-.869v-5.2A1.1,1.1,0,0,0,100.292,148.725Zm-1.374,4.846-3-.772v-2.928l3,.773Z" transform="translate(-65.418 -128.413)"/><path class="a" d="M89.671,155.924a1.1,1.1,0,0,0-.949-.2l-5.2,1.339a1.1,1.1,0,0,0-.826,1.065v5.2a1.1,1.1,0,0,0,1.376,1.065l5.2-1.339a1.1,1.1,0,0,0,.825-1.065v-5.2A1.1,1.1,0,0,0,89.671,155.924ZM87.9,161.14l-3,.772v-2.927l3-.772Z" transform="translate(-68.975 -125.757)"/><path class="a" d="M100.292,157.067l-5.2-1.339a1.1,1.1,0,0,0-1.374,1.065v5.2a1.1,1.1,0,0,0,.825,1.065l5.2,1.339a1.1,1.1,0,0,0,1.374-1.065v-5.2A1.1,1.1,0,0,0,100.292,157.067Zm-1.374,4.844-3-.772v-2.927l3,.772Z" transform="translate(-65.418 -125.757)"/><path class="a" d="M121.32,180.988h-3.093v-20.5a1,1,0,0,0-.689-.949l-4.946-1.624V137.638a1,1,0,0,0-.76-.969L97.2,133.016h-.016a.985.985,0,0,0-.227-.028.967.967,0,0,0-.227.028h-.017l-14.632,3.652a1,1,0,0,0-.759.969v8.195l-4.973,1.789a1,1,0,0,0-.663.941v32.425h-2.36a1,1,0,1,0,0,2H121.32a1,1,0,1,0,0-2Zm-5.1-19.773v19.773h-3.629V160.023ZM77.692,149.266l3.63-1.305v33.028h-3.63Zm5.636-10.847,12.625-3.15v45.72H83.329Zm14.632,42.57v-45.72l12.625,3.15v42.57Z" transform="translate(-72.323 -132.987)"/></svg>