<svg xmlns="http://www.w3.org/2000/svg" width="50" height="50" viewBox="0 0 50 50"><defs><style>.a,.b,.c,.d{fill:none;}.b,.c{stroke-linecap:round;stroke-linejoin:round;}.c{stroke:#13579a;stroke-width:2.2px;}.d{stroke-miterlimit:22.926;}.e,.f{stroke:none;}.f{fill:#13579a;}</style></defs><rect class="a" width="50" height="50" rx="8"/><g transform="translate(-1)"><g class="b" transform="translate(-780.58 -2413.83)"><path class="e" d="M806.33,2413.91a24.75,24.75,0,1,1-24.75,24.75,24.75,24.75,0,0,1,24.75-24.75Z"/><path class="f" d="M 806.3301391601562 2416.110107421875 C 803.28466796875 2416.110107421875 800.33154296875 2416.7060546875 797.5527954101562 2417.88134765625 C 794.8677978515625 2419.01708984375 792.4559936523438 2420.643310546875 790.3843994140625 2422.715087890625 C 788.3128662109375 2424.78662109375 786.6867065429688 2427.198486328125 785.5511474609375 2429.883544921875 C 784.3759155273438 2432.662109375 783.7800903320312 2435.615234375 783.7800903320312 2438.660400390625 C 783.7800903320312 2441.70556640625 784.3759155273438 2444.658447265625 785.5510864257812 2447.43701171875 C 786.6867065429688 2450.1220703125 788.3128051757812 2452.533935546875 790.3843994140625 2454.60546875 C 792.4559936523438 2456.677001953125 794.8677978515625 2458.30322265625 797.5527954101562 2459.43896484375 C 800.3314819335938 2460.6142578125 803.28466796875 2461.210205078125 806.3301391601562 2461.210205078125 C 809.375244140625 2461.210205078125 812.3280639648438 2460.6142578125 815.106689453125 2459.43896484375 C 817.7916870117188 2458.30322265625 820.2034912109375 2456.677001953125 822.275146484375 2454.60546875 C 824.3468627929688 2452.53369140625 825.97314453125 2450.121826171875 827.1088256835938 2447.43701171875 C 828.2840576171875 2444.658447265625 828.8800048828125 2441.70556640625 828.8800048828125 2438.660400390625 C 828.8800048828125 2435.615234375 828.2840576171875 2432.662353515625 827.1087646484375 2429.883544921875 C 825.97314453125 2427.19873046875 824.3468627929688 2424.786865234375 822.275146484375 2422.715087890625 C 820.2034912109375 2420.643310546875 817.7916259765625 2419.01708984375 815.106689453125 2417.88134765625 C 812.3280639648438 2416.7060546875 809.3751831054688 2416.110107421875 806.3301391601562 2416.110107421875 M 806.3301391601562 2413.91015625 C 819.9987182617188 2413.91015625 831.0800170898438 2424.991455078125 831.0800170898438 2438.660400390625 C 831.0800170898438 2452.3291015625 819.9987182617188 2463.41015625 806.3301391601562 2463.41015625 C 792.6597900390625 2463.41015625 781.580078125 2452.3291015625 781.580078125 2438.660400390625 C 781.580078125 2424.991455078125 792.6597900390625 2413.91015625 806.3301391601562 2413.91015625 Z"/></g><line class="c" x1="8.313" y2="10.175" transform="translate(25.5 15.406)"/><line class="c" x1="6.894" y1="5.426" transform="translate(17.606 20.155)"/><g class="d" transform="translate(-772.809 -2403.993)"><path class="e" d="M797.42,2427.98a1.77,1.77,0,1,0,1.77,1.77,1.77,1.77,0,0,0-1.77-1.77Z"/><path class="f" d="M 797.4198608398438 2427.980224609375 C 798.3966674804688 2427.980224609375 799.1896362304688 2428.772216796875 799.1896362304688 2429.75 C 799.1896362304688 2430.727783203125 798.3966674804688 2431.520751953125 797.4198608398438 2431.520751953125 C 796.4419555664062 2431.520751953125 795.6490478515625 2430.727783203125 795.6490478515625 2429.75 C 795.6490478515625 2428.772216796875 796.4419555664062 2427.980224609375 797.4198608398438 2427.980224609375 Z"/></g><g transform="translate(25 1)"><line class="c" y2="6.921" transform="translate(0 1)"/><line class="c" y2="6.921" transform="translate(0 40.594)"/></g><g transform="translate(1.493 26.972) rotate(-90)"><line class="c" y2="6.921" transform="translate(1.892 2.233)"/><line class="c" y2="6.921" transform="translate(1.892 40.239)"/></g></g></svg>