<svg xmlns="http://www.w3.org/2000/svg" width="40" height="40" viewBox="0 0 40 40"><defs><style>.a,.c{fill:none;}.b{fill:#13579a;}.c{stroke:#13579a;stroke-linecap:round;stroke-miterlimit:10;stroke-width:1.6px;}</style></defs><rect class="a" width="40" height="40"/><g transform="translate(-52.888 -638.375)"><g transform="matrix(0.966, -0.259, 0.259, 0.966, -167.762, 41.407)"><path class="b" d="M61.074,659.573a1.139,1.139,0,0,0,1.133.99l6.406-.032L67.29,663.61a.947.947,0,0,0,.5,1.243.961.961,0,0,0,.378.077l2.477-.016a.948.948,0,0,0,.6-.218l5.107-4.206,8.03-.04a2.483,2.483,0,0,0,2.087-1.148,2.556,2.556,0,0,0,.178-2.437l-1.519-2.774a2.514,2.514,0,0,0-2.3-1.484l-17.558.1-3.892-1.869a1.053,1.053,0,0,0-1.062.158,1.118,1.118,0,0,0-.411,1.043Zm3.724-5.248,18.031-.038a.862.862,0,0,1,.786.554l1.507,2.74a.871.871,0,0,1-.076.813.8.8,0,0,1-.678.378l-8.345.043a.793.793,0,0,0-.5.182l-5.15,4.237-1.25.005,1.648-3.232a.8.8,0,0,0-.717-1.164l-7.385.037-.947-6.1Z"/><rect class="b" width="2.092" height="2.094" rx="0.438" transform="matrix(1, -0.004, 0.004, 1, 66.938, 655.535)"/><rect class="b" width="2.095" height="2.094" rx="0.438" transform="matrix(1, -0.004, 0.004, 1, 71.135, 655.514)"/><path class="b" d="M77.123,657.142l0-1.218a.437.437,0,0,0-.439-.435l-1.218,0a.438.438,0,0,0-.436.44h0l0,1.218a.439.439,0,0,0,.439.436l1.219,0A.438.438,0,0,0,77.123,657.142Z"/><rect class="b" width="2.091" height="2.094" rx="0.438" transform="matrix(1, -0.005, 0.005, 1, 78.95, 655.478)"/></g><line class="c" x2="24.278" transform="translate(61.375 668.571)"/></g></svg>