<svg xmlns="http://www.w3.org/2000/svg" width="50" height="50" viewBox="0 0 50 50"><defs><style>.a{fill:rgba(255,255,255,0);}.b{fill:none;stroke:#13579a;stroke-linecap:round;stroke-linejoin:round;stroke-width:2.2px;}</style></defs><rect class="a" width="50" height="50"/><path class="b" d="M2382.7,2162.179h26.626a.464.464,0,0,1,.463.462v3.936a.466.466,0,0,1-.463.463H2382.7a.465.465,0,0,1-.463-.463v-3.936a.464.464,0,0,1,.463-.462Zm-.333-6.379,14.82-8.792a3.1,3.1,0,0,1,3.56.156l8.912,8.737m-26.959-.11h26.626a.466.466,0,0,1,.463.463v3.936a.466.466,0,0,1-.463.463H2382.7a.465.465,0,0,1-.463-.463v-3.936a.465.465,0,0,1,.463-.463Z" transform="translate(-2363.372 -2127.17)"/><g transform="translate(-2333.739 -2294.359)"><rect class="b" width="12.147" height="4.699" transform="translate(2341.239 2297.562)"/><rect class="b" width="18.627" height="6.579" transform="translate(2338.239 2312.703)"/><path class="b" d="M2356.414,2319.026v-7.564a6.289,6.289,0,0,0-.477-2.55c-1.2-2.758-2.2-3.722-4.178-6.454h-9.313c-1.983,2.732-2.978,3.7-4.179,6.454a6.35,6.35,0,0,0-.477,2.557v10.068c.043.705.043,11.945,0,12.648v2.837c0,1.625,1.661,2.878,3.492,2.8h12.12a2.989,2.989,0,0,0,3.012-2.8v-2.361" transform="translate(0.451 0.401)"/></g></svg>