<svg xmlns="http://www.w3.org/2000/svg" width="50" height="50" viewBox="0 0 50 50"><defs><style>.a,.b,.c,.d{fill:none;}.a{stroke-linecap:round;}.a,.d{stroke-linejoin:round;}.b,.c,.d{stroke:#13579a;stroke-width:2.2px;}.b{stroke-miterlimit:10;}.e,.f{stroke:none;}.f{fill:#13579a;}</style></defs><g class="a" transform="translate(-781.58 -2413.91)"><path class="e" d="M806.58,2413.91a25,25,0,1,1-25,25,25,25,0,0,1,25-25Z"/><path class="f" d="M 806.5800170898438 2416.109619140625 C 803.5007934570312 2416.109619140625 800.5149536132812 2416.712158203125 797.7053833007812 2417.900634765625 C 794.9906616210938 2419.048828125 792.5521240234375 2420.693115234375 790.4575805664062 2422.787841796875 C 788.363037109375 2424.882568359375 786.7188720703125 2427.3212890625 785.5706787109375 2430.035888671875 C 784.3825073242188 2432.845458984375 783.780029296875 2435.831298828125 783.780029296875 2438.91015625 C 783.780029296875 2441.989013671875 784.3825073242188 2444.974609375 785.5706787109375 2447.783935546875 C 786.7188720703125 2450.498779296875 788.363037109375 2452.937255859375 790.45751953125 2455.03173828125 C 792.5520629882812 2457.12646484375 794.9906005859375 2458.7705078125 797.7053833007812 2459.9189453125 C 800.514892578125 2461.107177734375 803.5007934570312 2461.709716796875 806.5800170898438 2461.709716796875 C 809.6588745117188 2461.709716796875 812.6444702148438 2461.107177734375 815.4539794921875 2459.9189453125 C 818.168701171875 2458.7705078125 820.6072387695312 2457.12646484375 822.701904296875 2455.03173828125 C 824.7965698242188 2452.937255859375 826.4408569335938 2450.49853515625 827.589111328125 2447.783935546875 C 828.7774658203125 2444.974609375 829.3800048828125 2441.989013671875 829.3800048828125 2438.91015625 C 829.3800048828125 2435.831298828125 828.7774658203125 2432.845703125 827.589111328125 2430.0361328125 C 826.4408569335938 2427.3212890625 824.7965698242188 2424.882568359375 822.701904296875 2422.787841796875 C 820.6072387695312 2420.693359375 818.1686401367188 2419.048828125 815.4539184570312 2417.900634765625 C 812.6444702148438 2416.712158203125 809.6588134765625 2416.109619140625 806.5800170898438 2416.109619140625 M 806.5800170898438 2413.90966796875 C 820.38671875 2413.90966796875 831.5800170898438 2425.103271484375 831.5800170898438 2438.91015625 C 831.5800170898438 2452.716796875 820.38671875 2463.90966796875 806.5800170898438 2463.90966796875 C 792.7716674804688 2463.90966796875 781.5800170898438 2452.716796875 781.5800170898438 2438.91015625 C 781.5800170898438 2425.103271484375 792.7716674804688 2413.90966796875 806.5800170898438 2413.90966796875 Z"/></g><rect class="b" width="29.256" height="21.329" rx="3" transform="translate(10.372 15.284)"/><path class="b" d="M2,0H6.36a2,2,0,0,1,2,2V4.409a0,0,0,0,1,0,0H0a0,0,0,0,1,0,0V2A2,2,0,0,1,2,0Z" transform="translate(20.79 10.387)"/><g transform="translate(16.728 15.209)"><line class="b" y2="21.404" transform="translate(0)"/><line class="b" y2="21.404" transform="translate(16.825)"/></g><g transform="translate(15.663 23.692)"><rect class="c" width="2.195" height="3.345" rx="1.097" transform="translate(0 1)"/><rect class="c" width="2.195" height="3.345" rx="1.097" transform="translate(16.825 1)"/></g><line class="d" x1="32.128" y2="33.759" transform="translate(10.372 10.081)"/></svg>