<svg xmlns="http://www.w3.org/2000/svg" width="40" height="40" viewBox="0 0 40 40"><defs><style>.a,.b{fill:none;}.b{stroke:#13579a;stroke-linecap:round;stroke-linejoin:round;stroke-width:1.45px;}</style></defs><rect class="a" width="40" height="40"/><g transform="translate(-2048.651 -1576.048)"><path class="b" d="M2067.318,1609.048v-1.734s1.733-1.3,1.733-2.888v-.578"/><path class="b" d="M2062.7,1596.337l-2.311,1.849a4.215,4.215,0,0,0-1.733,3.351v7.511"/><path class="b" d="M2061.365,1602.692s3.733-3.558,4.8-4.622,2.512,1.3,1.243,2.889c-.623.623-1.243,1.155-1.243,1.155v1.156a2.873,2.873,0,0,1-2.4,2.889"/><path class="b" d="M2062.7,1601.537v-16.18l2.311-2.309h13.867v20.8h-12.711"/><path class="b" d="M2066.162,1584.2v2.311h-2.311"/><path class="b" d="M2067.9,1592.87l2.311,2.311,4.622-5.2"/></g></svg>