<svg xmlns="http://www.w3.org/2000/svg" width="50.154" height="50" viewBox="0 0 50.154 50"><defs><style>.a{fill:#fff;opacity:0;}.b{fill:#13579a;stroke:#13579a;stroke-width:0.3px;}</style></defs><g transform="translate(0.154)"><rect class="a" width="50" height="50" transform="translate(0)"/><path class="b" d="M4.851,42.388A4.341,4.341,0,0,1,.605,37.143L4.6,16.5A4.3,4.3,0,0,1,8.86,12.98H25.439a.906.906,0,0,1,.886,1.1l-2.29,10.706a.912.912,0,0,1-.886.717h-7.16a2.506,2.506,0,0,0-2.479,2.026l-1.518,7.462.382.166a3.1,3.1,0,0,1,1.81,3.337l-.22,1.325a3.072,3.072,0,0,1-3.039,2.574Zm4.009-27.6a2.5,2.5,0,0,0-2.483,2.049L2.383,37.488a2.517,2.517,0,0,0,.5,2.146,2.423,2.423,0,0,0,1.97.942h6.074a1.265,1.265,0,0,0,1.252-1.06l.22-1.324a1.269,1.269,0,0,0-1.251-1.479H10.9a.9.9,0,0,1-.887-1.086l1.721-8.465a4.3,4.3,0,0,1,4.254-3.475H16.7l1.9-8.9Zm9.688,8.9h3.869l1.9-8.9H20.45Z" transform="translate(-0.514 0.934)"/><path class="b" d="M47,47.96a.878.878,0,0,1-.9-.919V43.428H40a8.48,8.48,0,0,1-8.47-8.471v-2.5H28.12a.9.9,0,0,1-.852-1.212l3.223-8.968V18.5A17.94,17.94,0,0,1,32.759,9.77l.205-.366-.318-.273a8.111,8.111,0,0,1-3.195-5.82.911.911,0,0,1,.652-.869A50.832,50.832,0,0,1,44.164.579c.952,0,1.915.024,2.86.071a.872.872,0,0,1,.853.943.878.878,0,0,1-.951.865c-.912-.045-1.848-.068-2.774-.068A50.468,50.468,0,0,0,31.827,3.846l-.565.145.217.543c1.76,4.4,7.562,7.058,15.519,7.1a.906.906,0,1,1,0,1.811,24.675,24.675,0,0,1-12.093-2.737l-.457-.259-.248.463A16.136,16.136,0,0,0,32.3,18.5v3.934a.893.893,0,0,1-.054.306l-2.842,7.9h3.03a.906.906,0,0,1,.906.905v3.405A6.666,6.666,0,0,0,40,41.616h7a.907.907,0,0,1,.906.907v4.538a.872.872,0,0,1-.9.9Z" transform="translate(-0.214 0.421)"/></g></svg>