<svg xmlns="http://www.w3.org/2000/svg" width="40" height="40" viewBox="0 0 40 40"><defs><style>.a,.b,.c{fill:none;}.b,.c{stroke:#13579a;stroke-linecap:round;stroke-linejoin:round;}.b{stroke-width:1.6px;}.c{stroke-width:1.1px;}</style></defs><rect class="a" width="40" height="40"/><g transform="translate(-13.221 -435.909)"><circle class="b" cx="2.032" cy="2.032" r="2.032" transform="translate(35.931 442.909)"/><path class="b" d="M43.535,456.068l-2.1-1.6-.354-3.355c-.1-1.14-.521-2.162-1.38-2.162H36.1a2.3,2.3,0,0,0-2.053,1.684L32.7,455.625"/><path class="b" d="M40.216,457.141l1.434,4.353-1.4,6.534a1.234,1.234,0,0,1-1.449.95h0a1.233,1.233,0,0,1-.953-1.516l.169-.659"/><path class="b" d="M38.039,462.849l-4.012,5.288a1.234,1.234,0,0,1-1.736.231l-.194-.149a1.235,1.235,0,0,1-.225-1.73l3.984-5.182-.719-4.16"/><path class="b" d="M22.691,467.39,20.514,465.8l5-6.856,3.374,2.46-4.126,5.659"/><circle class="b" cx="1.482" cy="1.482" r="1.482" transform="translate(22.406 466.781)"/><line class="b" y1="3.693" x2="2.698" transform="translate(28.886 457.713)"/><line class="b" y1="1.01" x2="0.707" transform="translate(26.905 458.858)"/><path class="c" d="M44.593,453.818l1.9.8-1.774,4.192-1.9-.8"/><path class="b" d="M25.922,443.311l3,3-3,3"/><line class="b" x2="8.701" transform="translate(20.221 446.311)"/></g></svg>