<svg xmlns="http://www.w3.org/2000/svg" width="40" height="40" viewBox="0 0 40 40"><defs><style>.a,.b{fill:none;}.b{stroke:#FFC23C;stroke-linecap:round;stroke-linejoin:round;stroke-width:1.45px;}</style></defs><g transform="translate(-2.647 -345.028)"><rect class="a" width="40" height="40" transform="translate(2.647 345.028)"/><g transform="translate(-2045.34 -1186.686)"><line class="b" x2="4.522" transform="translate(2065.639 1562.453)"/><line class="b" x2="4.522" transform="translate(2065.639 1564.714)"/><path class="b" d="M2075.813,1546.627a7.913,7.913,0,0,0-8.047-7.912,8.013,8.013,0,0,0-7.774,7.621,7.887,7.887,0,0,0,3.213,6.651,3.3,3.3,0,0,1,1.3,2.667v3.123c0,.91.506,1.416,1.13,1.416h4.522a1.131,1.131,0,0,0,1.13-1.131v-3.405a3.261,3.261,0,0,1,1.272-2.647A7.884,7.884,0,0,0,2075.813,1546.627Z"/><line class="b" y2="10.174" transform="translate(2067.9 1550.019)"/><line class="b" x2="2.261" y2="2.261" transform="translate(2065.639 1547.758)"/><line class="b" x1="2.261" y2="2.261" transform="translate(2067.9 1547.758)"/></g></g></svg>