<svg xmlns="http://www.w3.org/2000/svg" width="30" height="30" viewBox="0 0 30 30"><defs><style>.a{fill:none;}.b{fill:#333;}</style></defs><rect class="a" width="30" height="30"/><g transform="translate(-253.598 -310.551)"><path class="b" d="M266.977,330.118l-2.1,2.1a2.225,2.225,0,0,1-3.147-3.146l4.2-4.2a2.224,2.224,0,0,1,3.146,0,.742.742,0,0,0,1.049-1.049,3.707,3.707,0,0,0-5.243,0l-4.2,4.195a3.708,3.708,0,0,0,5.244,5.244l2.1-2.1a.741.741,0,1,0-1.049-1.048Z"/><path class="b" d="M276.311,317.637a3.708,3.708,0,0,0-5.244,0l-2.517,2.517A.741.741,0,0,0,269.6,321.2l2.516-2.516a2.225,2.225,0,0,1,3.147,3.146l-4.614,4.614a2.224,2.224,0,0,1-3.146,0,.742.742,0,0,0-1.049,1.049,3.707,3.707,0,0,0,5.243,0l4.615-4.614A3.708,3.708,0,0,0,276.311,317.637Z"/></g></svg>