<svg xmlns="http://www.w3.org/2000/svg" xmlns:xlink="http://www.w3.org/1999/xlink" width="171" height="51" viewBox="0 0 171 51"><defs><style>.a{stroke:#a6a6a6;}.b,.c,.j{fill:#fff;}.b{stroke:#fff;stroke-miterlimit:10;stroke-width:0.2px;}.d{fill:url(#a);}.e{fill:url(#b);}.f{fill:url(#c);}.g{fill:url(#d);}.h{opacity:0.2;}.h,.i,.j{isolation:isolate;}.i{opacity:0.12;}.j{opacity:0.25;}</style><linearGradient id="a" x1="0.915" y1="6.614" x2="-0.383" y2="5.945" gradientUnits="objectBoundingBox"><stop offset="0" stop-color="#00a0ff"/><stop offset="0.007" stop-color="#00a1ff"/><stop offset="0.26" stop-color="#00beff"/><stop offset="0.512" stop-color="#00d2ff"/><stop offset="0.76" stop-color="#00dfff"/><stop offset="1" stop-color="#00e3ff"/></linearGradient><linearGradient id="b" x1="1.076" y1="17.098" x2="-1.305" y2="17.098" gradientUnits="objectBoundingBox"><stop offset="0" stop-color="#ffe000"/><stop offset="0.409" stop-color="#ffbd00"/><stop offset="0.775" stop-color="orange"/><stop offset="1" stop-color="#ff9c00"/></linearGradient><linearGradient id="c" x1="0.862" y1="10.863" x2="-0.501" y2="9.093" gradientUnits="objectBoundingBox"><stop offset="0" stop-color="#ff3a44"/><stop offset="1" stop-color="#c31162"/></linearGradient><linearGradient id="d" x1="-0.188" y1="13.583" x2="0.421" y2="12.793" gradientUnits="objectBoundingBox"><stop offset="0" stop-color="#32a071"/><stop offset="0.068" stop-color="#2da771"/><stop offset="0.476" stop-color="#15cf74"/><stop offset="0.801" stop-color="#06e775"/><stop offset="1" stop-color="#00f076"/></linearGradient></defs><g transform="translate(-9.5 -9.5)"><rect class="a" width="170" height="50" rx="5" transform="translate(10 10)"/><g transform="translate(61.946 18.625)"><path class="b" d="M58.972,21.108a3.4,3.4,0,0,1-.936,2.516,3.653,3.653,0,0,1-2.769,1.115A3.882,3.882,0,0,1,51.352,20.8a3.882,3.882,0,0,1,3.916-3.937,3.9,3.9,0,0,1,1.548.315,3.1,3.1,0,0,1,1.178.843l-.662.662a2.549,2.549,0,0,0-2.064-.893,2.915,2.915,0,0,0-2.927,3.01,2.964,2.964,0,0,0,5.032,2.169A2.377,2.377,0,0,0,58,21.445H55.268v-.9h3.653A3.212,3.212,0,0,1,58.972,21.108Z" transform="translate(-51.352 -16.866)"/><path class="b" d="M62.925,17.926H59.492v2.391h3.1v.9h-3.1v2.391h3.433v.926h-4.4V17h4.4Z" transform="translate(-49.514 -16.832)"/><path class="b" d="M65.906,24.537h-.97V17.926h-2.1V17h5.179v.926H65.906Z" transform="translate(-48.411 -16.832)"/><path class="b" d="M69.938,24.537V17h.967v7.537Z" transform="translate(-46.59 -16.832)"/><path class="b" d="M74.755,24.537h-.969V17.926H71.681V17H76.86v.926H74.755Z" transform="translate(-46.144 -16.832)"/><path class="b" d="M84.962,23.6a3.914,3.914,0,0,1-5.526,0,4.073,4.073,0,0,1,0-5.59,3.9,3.9,0,0,1,5.521.005,4.06,4.06,0,0,1,.005,5.585Zm-4.811-.632a2.9,2.9,0,0,0,4.1,0,3.211,3.211,0,0,0,0-4.326,2.9,2.9,0,0,0-4.1,0,3.215,3.215,0,0,0,0,4.326Z" transform="translate(-44.442 -16.866)"/><path class="b" d="M85.575,24.537V17h1.18l3.663,5.863h.041l-.041-1.452V17h.969v7.537h-1.01l-3.833-6.148H86.5l.041,1.453v4.694Z" transform="translate(-42.584 -16.832)"/></g><path class="c" d="M85.077,32.957A5.343,5.343,0,1,0,90.44,38.3,5.266,5.266,0,0,0,85.077,32.957Zm0,8.58A3.246,3.246,0,1,1,88.092,38.3,3.091,3.091,0,0,1,85.077,41.537Zm-11.7-8.58A5.343,5.343,0,1,0,78.741,38.3,5.266,5.266,0,0,0,73.378,32.957Zm0,8.58A3.246,3.246,0,1,1,76.393,38.3,3.091,3.091,0,0,1,73.378,41.537ZM59.461,34.6v2.266h5.423a4.73,4.73,0,0,1-1.234,2.853,5.553,5.553,0,0,1-4.189,1.659,6.031,6.031,0,0,1,0-12.061,5.778,5.778,0,0,1,4.088,1.619l1.6-1.6a7.908,7.908,0,0,0-5.687-2.288,8.3,8.3,0,1,0,0,16.6,7.582,7.582,0,0,0,5.787-2.328,7.489,7.489,0,0,0,1.963-5.3A7.322,7.322,0,0,0,67.09,34.6Zm56.916,1.76a4.966,4.966,0,0,0-4.574-3.4,5.076,5.076,0,0,0-5.039,5.343,5.228,5.228,0,0,0,5.3,5.343,5.313,5.313,0,0,0,4.452-2.368L114.7,40.06a3.052,3.052,0,0,1-2.63,1.477,2.719,2.719,0,0,1-2.592-1.618l7.144-2.956Zm-7.286,1.781a2.931,2.931,0,0,1,2.793-3.117,2.067,2.067,0,0,1,1.984,1.133Zm-5.807,5.181h2.347v-15.7h-2.347Zm-3.846-9.168h-.08a3.7,3.7,0,0,0-2.813-1.193,5.347,5.347,0,0,0,0,10.685,3.64,3.64,0,0,0,2.813-1.215h.08v.77c0,2.044-1.092,3.137-2.853,3.137a2.957,2.957,0,0,1-2.692-1.9l-2.044.85a5.091,5.091,0,0,0,4.736,3.157c2.752,0,5.08-1.619,5.08-5.565V33.28H99.437Zm-2.691,7.386a3.249,3.249,0,0,1,0-6.476A3.011,3.011,0,0,1,99.6,38.32,2.984,2.984,0,0,1,96.746,41.537Zm30.627-13.922h-5.616v15.7H124.1V37.369h3.274a4.884,4.884,0,1,0,0-9.754Zm.06,7.569H124.1V29.8h3.334a2.692,2.692,0,1,1,0,5.383Zm14.486-2.255a4.4,4.4,0,0,0-4.183,2.4l2.082.869a2.22,2.22,0,0,1,2.142-1.152,2.257,2.257,0,0,1,2.465,2.021v.161a5.185,5.185,0,0,0-2.445-.605c-2.242,0-4.526,1.232-4.526,3.535a3.629,3.629,0,0,0,3.9,3.456,3.307,3.307,0,0,0,2.991-1.536h.08v1.212h2.262V37.271C146.687,34.484,144.607,32.928,141.92,32.928Zm-.283,8.606c-.769,0-1.839-.383-1.839-1.333,0-1.212,1.333-1.677,2.485-1.677a4.182,4.182,0,0,1,2.142.525A2.841,2.841,0,0,1,141.637,41.535Zm13.293-8.263-2.687,6.809h-.08l-2.789-6.809h-2.525l4.182,9.516-2.384,5.294h2.445l6.446-14.809ZM133.817,43.318h2.344v-15.7h-2.344Z" transform="translate(10.515 4.367)"/><g transform="translate(22.528 18.97)"><path class="d" d="M20.553,17.557a2.521,2.521,0,0,0-.58,1.765V47.1a2.519,2.519,0,0,0,.58,1.765l.093.09L36.209,33.4v-.367L20.646,17.465Z" transform="translate(-19.973 -17.057)"/><path class="e" d="M38.086,36.471,32.9,31.28v-.367l5.189-5.189.117.068,6.147,3.492c1.755,1,1.755,2.629,0,3.627L38.2,36.4Z" transform="translate(-16.662 -14.941)"/><path class="f" d="M41.4,35.307,36.091,30,20.435,45.657a2.044,2.044,0,0,0,2.612.077L41.4,35.307" transform="translate(-19.855 -13.846)"/><path class="g" d="M41.4,27.99,23.047,17.563a2.044,2.044,0,0,0-2.612.077L36.091,33.3Z" transform="translate(-19.855 -17.14)"/><g transform="translate(0 21.345)"><path class="h" d="M41.28,34.132,23.047,44.492a2.092,2.092,0,0,1-2.517.014h0l-.094.093h0l.093.092h0a2.092,2.092,0,0,0,2.517-.014L41.4,34.249Z" transform="translate(-19.855 -34.132)"/><path class="i" d="M20.553,42.678a2.519,2.519,0,0,1-.58-1.765V41.1a2.516,2.516,0,0,0,.58,1.764l.094-.093Z" transform="translate(-19.973 -32.395)"/></g><path class="i" d="M43.292,31.632,37.029,35.19l.117.117,6.147-3.492A2.205,2.205,0,0,0,44.609,30h0A2.338,2.338,0,0,1,43.292,31.632Z" transform="translate(-15.603 -13.846)"/><path class="j" d="M23.165,17.747l24.5,13.919A2.338,2.338,0,0,1,48.978,33.3h0a2.2,2.2,0,0,0-1.316-1.814l-24.5-13.919c-1.756-1-3.192-.168-3.192,1.842v.185C19.973,17.578,21.409,16.749,23.165,17.747Z" transform="translate(-19.973 -17.14)"/></g></g></svg>