<svg xmlns="http://www.w3.org/2000/svg" width="171" height="57.326" viewBox="0 0 171 57.326"><defs><style>.a{stroke:#a6a6a6;}.b{fill:#fff;}</style></defs><g transform="translate(0.5 0)"><g transform="translate(0 0)"><rect class="a" width="170" height="56.326" rx="5" transform="translate(0 0.5)"/><g transform="translate(14.166 12.389)"><path class="b" d="M30.993,22.962a7.03,7.03,0,0,1,3.348-5.9A7.2,7.2,0,0,0,28.671,14c-2.386-.25-4.7,1.428-5.914,1.428-1.239,0-3.111-1.4-5.126-1.361a7.551,7.551,0,0,0-6.354,3.875c-2.748,4.757-.7,11.748,1.934,15.593,1.317,1.883,2.856,3.986,4.869,3.911,1.971-.082,2.706-1.257,5.085-1.257,2.357,0,3.047,1.257,5.1,1.209,2.114-.034,3.447-1.891,4.717-3.792a15.573,15.573,0,0,0,2.157-4.393A6.794,6.794,0,0,1,30.993,22.962Z" transform="translate(-9.972 -6.511)"/><path class="b" d="M23.4,13.679A6.922,6.922,0,0,0,24.986,8.72a7.043,7.043,0,0,0-4.557,2.358A6.587,6.587,0,0,0,18.8,15.853,5.823,5.823,0,0,0,23.4,13.679Z" transform="translate(-6.262 -8.72)"/><g transform="translate(34.743 13)"><path class="b" d="M45.615,30.951H38.89L37.275,35.72H34.427L40.8,18.078h2.959L50.125,35.72h-2.9Zm-6.028-2.2h5.33l-2.628-7.739h-.074Z" transform="translate(-34.427 -17.784)"/><path class="b" d="M58.747,27.915c0,4-2.139,6.565-5.368,6.565a4.36,4.36,0,0,1-4.047-2.25h-.061V38.6h-2.64V21.483h2.556v2.139h.049a4.563,4.563,0,0,1,4.1-2.274C56.6,21.348,58.747,23.929,58.747,27.915Zm-2.714,0c0-2.6-1.346-4.316-3.4-4.316-2.017,0-3.374,1.748-3.374,4.316,0,2.592,1.357,4.327,3.374,4.327C54.688,32.242,56.033,30.542,56.033,27.915Z" transform="translate(-29.294 -16.409)"/><path class="b" d="M68.712,27.915c0,4-2.139,6.565-5.368,6.565a4.36,4.36,0,0,1-4.047-2.25h-.061V38.6H56.6V21.483h2.555v2.139H59.2a4.563,4.563,0,0,1,4.1-2.274C66.56,21.348,68.712,23.929,68.712,27.915Zm-2.714,0c0-2.6-1.346-4.316-3.4-4.316-2.017,0-3.374,1.748-3.374,4.316,0,2.592,1.357,4.327,3.374,4.327,2.053,0,3.4-1.7,3.4-4.327Z" transform="translate(-25.102 -16.409)"/><path class="b" d="M72.511,30.891c.2,1.749,1.9,2.9,4.218,2.9,2.225,0,3.826-1.149,3.826-2.726,0-1.369-.966-2.189-3.252-2.751l-2.286-.551c-3.239-.782-4.743-2.3-4.743-4.756,0-3.044,2.653-5.135,6.419-5.135,3.728,0,6.283,2.091,6.369,5.135H80.4c-.16-1.761-1.615-2.823-3.742-2.823s-3.582,1.075-3.582,2.64c0,1.247.93,1.981,3.2,2.543l1.944.477c3.62.856,5.123,2.31,5.123,4.89,0,3.3-2.629,5.368-6.81,5.368-3.912,0-6.554-2.019-6.724-5.209Z" transform="translate(-19.545 -17.871)"/><path class="b" d="M84.685,19.3v3.044h2.446v2.091H84.685v7.091c0,1.1.49,1.615,1.565,1.615a8.25,8.25,0,0,0,.868-.061v2.078a7.25,7.25,0,0,1-1.466.122c-2.6,0-3.62-.978-3.62-3.473V24.434h-1.87V22.344h1.87V19.3Z" transform="translate(-15.189 -17.27)"/><path class="b" d="M86.065,27.921c0-4.047,2.383-6.59,6.1-6.59s6.1,2.543,6.1,6.59-2.36,6.59-6.1,6.59S86.065,31.979,86.065,27.921Zm9.512,0c0-2.776-1.272-4.415-3.411-4.415s-3.41,1.651-3.41,4.415c0,2.787,1.271,4.413,3.41,4.413s3.411-1.626,3.411-4.413Z" transform="translate(-12.706 -16.416)"/><path class="b" d="M96.186,21.483H98.7v2.189h.061a3.068,3.068,0,0,1,3.094-2.324,4.072,4.072,0,0,1,.9.1v2.469a3.691,3.691,0,0,0-1.186-.16,2.66,2.66,0,0,0-2.751,2.959v7.629h-2.64Z" transform="translate(-8.449 -16.409)"/><path class="b" d="M112.82,30.574c-.355,2.335-2.629,3.937-5.538,3.937-3.742,0-6.064-2.507-6.064-6.529s2.335-6.651,5.953-6.651c3.559,0,5.8,2.445,5.8,6.344v.9h-9.084v.16a3.35,3.35,0,0,0,3.46,3.643,2.91,2.91,0,0,0,2.97-1.809Zm-8.925-3.839h6.43a3.093,3.093,0,0,0-3.155-3.264,3.256,3.256,0,0,0-3.276,3.264Z" transform="translate(-6.332 -16.416)"/></g></g></g><g transform="translate(50.676 11.986)"><path class="b" d="M38.733,8.734a3.75,3.75,0,0,1,3.989,4.212c0,2.708-1.464,4.265-3.989,4.265H35.671V8.734Zm-1.745,7.278h1.6a2.665,2.665,0,0,0,2.8-3.049,2.672,2.672,0,0,0-2.8-3.031h-1.6Z" transform="translate(-35.671 -8.316)"/><path class="b" d="M41.685,13.427a3.031,3.031,0,1,1,6.034,0,3.031,3.031,0,1,1-6.034,0Zm4.735,0c0-1.387-.623-2.2-1.716-2.2s-1.715.811-1.715,2.2.617,2.2,1.715,2.2,1.716-.81,1.716-2.2Z" transform="translate(-33.147 -7.734)"/><path class="b" d="M53.678,16.592h-1.31L51.046,11.88h-.1L49.63,16.592h-1.3l-1.763-6.4H47.85L49,15.076h.094l1.315-4.881h1.211l1.315,4.881h.1l1.14-4.881h1.262Z" transform="translate(-31.087 -7.698)"/><path class="b" d="M53.854,10.233h1.215v1.016h.094a1.915,1.915,0,0,1,1.909-1.14,2.081,2.081,0,0,1,2.214,2.379V16.63H58.024V12.806c0-1.028-.447-1.539-1.38-1.539a1.467,1.467,0,0,0-1.527,1.621V16.63H53.854Z" transform="translate(-28.023 -7.736)"/><path class="b" d="M59.094,8.437h1.262v8.894H59.094Z" transform="translate(-25.818 -8.437)"/><path class="b" d="M61.222,13.427a3.031,3.031,0,1,1,6.034,0,3.031,3.031,0,1,1-6.034,0Zm4.735,0c0-1.387-.623-2.2-1.716-2.2s-1.715.811-1.715,2.2.617,2.2,1.715,2.2S65.957,14.819,65.957,13.427Z" transform="translate(-24.929 -7.734)"/><path class="b" d="M66.4,14.819c0-1.152.857-1.815,2.379-1.91l1.733-.1v-.552c0-.676-.447-1.057-1.31-1.057-.7,0-1.193.259-1.333.711H66.648c.129-1.1,1.163-1.8,2.614-1.8,1.6,0,2.508.8,2.508,2.15v4.371H70.555v-.9h-.1a2.152,2.152,0,0,1-1.921,1A1.932,1.932,0,0,1,66.4,14.819Zm4.112-.547v-.535l-1.562.1c-.881.059-1.281.359-1.281.923s.5.911,1.186.911a1.508,1.508,0,0,0,1.656-1.4Z" transform="translate(-22.745 -7.734)"/><path class="b" d="M71.348,14.13c0-2.021,1.039-3.3,2.655-3.3a2.108,2.108,0,0,1,1.962,1.122h.094V8.437h1.262v8.894h-1.21V16.321h-.1A2.22,2.22,0,0,1,74,17.437C72.376,17.437,71.348,16.156,71.348,14.13Zm1.3,0c0,1.357.64,2.173,1.709,2.173s1.722-.828,1.722-2.168-.665-2.173-1.722-2.173-1.709.822-1.709,2.168Z" transform="translate(-20.664 -8.437)"/><path class="b" d="M79.234,13.427a3.031,3.031,0,1,1,6.034,0,3.031,3.031,0,1,1-6.034,0Zm4.735,0c0-1.387-.623-2.2-1.716-2.2s-1.715.811-1.715,2.2.617,2.2,1.715,2.2S83.969,14.819,83.969,13.427Z" transform="translate(-17.352 -7.734)"/><path class="b" d="M84.669,10.233h1.215v1.016h.094a1.915,1.915,0,0,1,1.909-1.14A2.081,2.081,0,0,1,90.1,12.489V16.63H88.84V12.806c0-1.028-.447-1.539-1.38-1.539a1.467,1.467,0,0,0-1.527,1.621V16.63H84.669Z" transform="translate(-15.06 -7.736)"/><path class="b" d="M94.19,9.074V10.7h1.386v1.063H94.19v3.289c0,.67.276.964.9.964a4.215,4.215,0,0,0,.481-.029v1.052a4.142,4.142,0,0,1-.687.065c-1.4,0-1.963-.494-1.963-1.727V11.759H91.911V10.7h1.016V9.074Z" transform="translate(-12.014 -8.169)"/><path class="b" d="M95.7,8.437h1.251v3.525h.1a1.968,1.968,0,0,1,1.951-1.146,2.107,2.107,0,0,1,2.2,2.385v4.13H99.946V13.513c0-1.022-.476-1.539-1.368-1.539A1.494,1.494,0,0,0,96.967,13.6v3.736H95.7Z" transform="translate(-10.418 -8.437)"/><path class="b" d="M106.465,14.9a2.6,2.6,0,0,1-2.772,1.851,2.906,2.906,0,0,1-2.955-3.3,2.95,2.95,0,0,1,2.95-3.342c1.78,0,2.854,1.216,2.854,3.225v.441h-4.517v.071a1.691,1.691,0,0,0,1.7,1.833,1.533,1.533,0,0,0,1.522-.776Zm-4.441-2.062h3.231a1.543,1.543,0,0,0-1.575-1.657,1.636,1.636,0,0,0-1.656,1.657Z" transform="translate(-8.312 -7.734)"/></g></g></svg>