<svg xmlns="http://www.w3.org/2000/svg" width="135.742" height="70" viewBox="0 0 135.742 70"><defs><style>.a{fill:#99d6ad;}</style></defs><g transform="translate(-171.655 -185.498)"><path class="a" d="M268.919,218.1a14.984,14.984,0,0,0-2.4,1.286,20.158,20.158,0,0,0,2.666-6.666c.521-2.688.466-7.238-5.108-7.238-3.775,0-8.076,2.622-10.638,4.443a38.236,38.236,0,0,0,4.214-7.694c2.688-6.943,2.707-16.1-8.578-16.69-29.414-1.549-77.423,42.042-77.423,42.042h25.353c23.556-19.844,44.763-31.014,49.927-25.671,3.326,3.444-1.057,13.453-10.527,26.046,13.147-11.491,22.8-16.1,25.9-12.844,1.814,1.9.144,7.718-3.563,12.831a24.884,24.884,0,0,1,4.17-3.071c3.372-1.938,7.882-3.6,9.754-1.974,1.144.995,1.064,2.979.347,5.213a13.412,13.412,0,0,0,3.048-5.852c.954-4.531-2-6.35-7.149-4.161"/><rect width="0.386" height="21.267" transform="translate(236.1 234.153)"/><path d="M211.886,239.425a.379.379,0,0,0-.379.378v3.619a.378.378,0,0,0,.379.377h6.953a.378.378,0,0,0,.379-.377V239.8a.379.379,0,0,0-.379-.378Zm6.576.756v2.863h-6.2v-2.863Z"/><rect width="9.331" height="0.757" transform="translate(210.697 236.198)"/><rect width="0.756" height="4.738" transform="translate(214.984 235.135)"/><path d="M215.584,236.877l-.454-.6a24.93,24.93,0,0,1-4.637,2.541v.822A25.49,25.49,0,0,0,215.584,236.877Z"/><path d="M215.584,236.274l-.454.6a25.517,25.517,0,0,0,5.1,2.765v-.821A25.048,25.048,0,0,1,215.584,236.274Z"/><rect width="7.06" height="0.756" transform="translate(211.733 241.234)"/><path d="M211.505,234.69v.755c.416-.006,3.539-.073,7.555-.453v-.761C215.07,234.614,211.958,234.681,211.505,234.69Z"/><path d="M190.643,246.711l1.668,6.447,0,.01a1.364,1.364,0,0,0,1.2,1.028h.431v-.81h-.431a.614.614,0,0,1-.422-.441c0-.018-1.665-6.437-1.665-6.437Z"/><rect width="0.81" height="1.623" transform="matrix(0.921, -0.389, 0.389, 0.921, 192.174, 246.893)"/><rect width="6.079" height="0.755" transform="translate(187.851 247.933)"/><path d="M188.229,249.235a.378.378,0,0,0-.378.378v2.025a.379.379,0,0,0,.378.378h2.464a.379.379,0,0,0,.379-.378v-2.025a.379.379,0,0,0-.379-.378Zm2.086.757v1.267h-1.707v-1.267Z"/><path d="M187.851,253.224v.792l3.2-1.013v-.792Z"/><path d="M186.841,246.235a.377.377,0,0,0-.377.378v8.433a.377.377,0,0,0,.377.377h8.1a.377.377,0,0,0,.378-.377v-8.433a.378.378,0,0,0-.378-.378Zm7.721.757v7.675h-7.343v-7.675Z"/><path d="M191.049,253.23v1c1.864-1.127,2.633-4.128,2.821-5h-.831A8.421,8.421,0,0,1,191.049,253.23Z"/><rect width="2.675" height="0.756" transform="translate(210.834 247.977)"/><rect width="6.749" height="0.756" transform="translate(213.377 251.026)"/><rect width="0.756" height="2.347" transform="matrix(0.813, -0.582, 0.582, 0.813, 211.913, 248.954)"/><path d="M214.005,253.833c-.151.733-.448.833-.747.833v.755c.543,0,1.242-.247,1.487-1.434.215-1.04.45-2.5.453-2.519l-.747-.119C214.449,251.364,214.216,252.81,214.005,253.833Z"/><path d="M215.026,252.285l-.663.361a3.938,3.938,0,0,0,1.786,1.374l.329-.68a3.544,3.544,0,0,1-1.456-1.062Z"/><rect width="0.755" height="9.205" transform="translate(211.824 246.224)"/><path d="M212.372,248.533l-.736-.176a28.113,28.113,0,0,1-1.364,4.089h.822A29.047,29.047,0,0,0,212.372,248.533Z"/><path d="M219.373,249.115v.636h-.912c.505-.658,1.3-1.7,1.3-1.7a.373.373,0,0,0,.078-.229.367.367,0,0,0-.039-.168.379.379,0,0,0-.338-.21h-.791c.307-.422.7-.959.888-1.225h-.933l-1,1.381a.381.381,0,0,0-.03.394.376.376,0,0,0,.336.205h.766c-.5.659-1.3,1.694-1.3,1.694a.384.384,0,0,0-.077.231.376.376,0,0,0,.378.377h2.055a.378.378,0,0,0,.378-.377v-1.014Z"/><path d="M215.451,249.1v.637h-.911l1.3-1.694a.375.375,0,0,0,.078-.229.377.377,0,0,0-.378-.378h-.79c.3-.417.685-.943.88-1.214h-.934l-.993,1.37a.377.377,0,0,0,.306.6h.765l-1.3,1.7a.388.388,0,0,0-.078.229.369.369,0,0,0,.041.168.374.374,0,0,0,.338.209h2.055a.377.377,0,0,0,.378-.377V249.1Z"/><path d="M219.77,252.144h-.84a5.766,5.766,0,0,1-3.057,2.482v.806A6.337,6.337,0,0,0,219.77,252.144Z"/><rect width="0.756" height="1.025" transform="matrix(0.973, -0.23, 0.23, 0.973, 218.306, 250.359)"/><path d="M219.644,254.666c-.72,0-1.015-.249-1.756-3.221,0,0-1.032-4.387-1.3-5.536h-.776l1.345,5.714c.687,2.758,1.081,3.8,2.49,3.8h.481v-.757Z"/><path d="M205.5,246.235v.757h1.483a5.75,5.75,0,0,1-1.108,1.815l.53.538a7.141,7.141,0,0,0,1.512-2.7,3.635,3.635,0,0,0,.108-.412Z"/><path d="M202,247.534a10.957,10.957,0,0,1,1.5,1.071l.536-.534a12.235,12.235,0,0,0-1.646-1.183Z"/><path d="M201.163,248.493a10.9,10.9,0,0,1,1.5,1.071l.535-.534a12.208,12.208,0,0,0-1.645-1.183Z"/><rect width="4.301" height="0.755" transform="translate(202.573 250.043)"/><rect width="6.398" height="0.757" transform="translate(201.524 251.689)"/><path d="M204.359,252.1v1.741c0,.672-.111.825-.594.825h-.408v.756h.408c1.351,0,1.351-1.149,1.351-1.581V252.1Z"/><path d="M202.589,246.235v.757h1.524a10.719,10.719,0,0,1-2.588,3.092v.962l.009.012c2.889-2.309,3.493-4.255,3.519-4.336l.144-.487Z"/><path d="M198.749,246.235a.377.377,0,0,0-.378.378v8.815h.755v-2.385h.585a1.445,1.445,0,0,0,1.259-.518,1.228,1.228,0,0,0,.211-.729,2.615,2.615,0,0,0-.168-.862,17.347,17.347,0,0,0-.789-1.628c.08-.268.779-2.583.779-2.583a.411.411,0,0,0,.015-.11.376.376,0,0,0-.378-.378Zm1.383.757c-.2.658-.677,2.244-.677,2.244a.369.369,0,0,0-.016.109.378.378,0,0,0,.045.18c.186.346.694,1.315.815,1.659a1.861,1.861,0,0,1,.127.609.5.5,0,0,1-.073.294.823.823,0,0,1-.642.2h-.585v-5.295Z"/><path d="M200.542,248.43l.5.569a11.192,11.192,0,0,0,2.416-3.09h-.837A12.108,12.108,0,0,1,200.542,248.43Z"/><path d="M202.1,252.926c-.321.736-.9,1.932-1.243,2.506h.866c.429-.793.975-1.959,1.2-2.506Z"/><path d="M206.925,252.926H206.1c.223.547.769,1.713,1.2,2.506h.867C207.828,254.858,207.245,253.662,206.925,252.926Z"/><path d="M204.948,246.842l-.7.293a12.251,12.251,0,0,0,3.671,3.911v-.95A11.225,11.225,0,0,1,204.948,246.842Z"/><rect width="2.804" height="0.755" transform="translate(222.403 247.636)"/><path d="M226.216,246.228a.377.377,0,0,0-.378.378v2.825a.378.378,0,0,0,.378.379h4.819a.377.377,0,0,0,.377-.379v-2.825a.376.376,0,0,0-.377-.378Zm4.442.755v2.07h-4.064v-2.07Z"/><rect width="4.482" height="0.756" transform="translate(226.416 247.64)"/><path d="M222.407,252.833v.883l2.8-1.7v-.884Z"/><path d="M226.161,251.683v.756h5v1.69c0,.133,0,.541-.721.541H230v.756h.442c.911,0,1.477-.5,1.477-1.3v-2.068a.378.378,0,0,0-.378-.378Z"/><rect width="6.752" height="0.756" transform="translate(225.424 250.322)"/><rect width="0.754" height="6.199" transform="translate(223.428 246.235)"/><path d="M227.148,250.835l-.763-.273a12.061,12.061,0,0,1-2.036,3.227h1.041A11.877,11.877,0,0,0,227.148,250.835Z"/><path d="M230.382,252.056l-.79-.18a17.008,17.008,0,0,1-1.945,3.556h.98A16.032,16.032,0,0,0,230.382,252.056Z"/><path d="M228.356,252.154l-.777-.227a17.043,17.043,0,0,1-2.228,3.505h1.03A16.183,16.183,0,0,0,228.356,252.154Z"/><path d="M226.457,239.13a.377.377,0,0,0-.378.377v2.932a1.276,1.276,0,0,0,.369.938,1.718,1.718,0,0,0,1.155.422h3.673a.377.377,0,0,0,.378-.377v-1.4H230.9v1.02h-3.31a.974.974,0,0,1-.614-.21.531.531,0,0,1-.14-.4v-.648h3.482a.377.377,0,0,0,.377-.379v-1.9a.377.377,0,0,0-.377-.377Zm3.482.755v1.15h-3.1v-1.15Z"/><rect width="6.766" height="0.756" transform="translate(225.187 235.367)"/><path d="M226.885,234.284V237.7a12.5,12.5,0,0,1-2.114,2.611v1.031a13.1,13.1,0,0,0,2.827-3.37.353.353,0,0,0,.043-.174v-3.513Z"/><path d="M230.254,237.7v-3.415H229.5V237.8a.375.375,0,0,0,.042.174,13.14,13.14,0,0,0,2.829,3.37V240.31A12.581,12.581,0,0,1,230.254,237.7Z"/><path d="M223.691,239.887a40.521,40.521,0,0,1-1.346,3.913h.816c.668-1.656,1.2-3.511,1.315-3.913Z"/><path d="M222.648,236.543v1.025c.512.479,1.279,1.219,1.867,1.9v-1.123C223.726,237.515,222.879,236.749,222.648,236.543Z"/><rect width="7.646" height="0.756" transform="translate(224.747 237.37)"/><path d="M222.648,234.324v1.026a26.363,26.363,0,0,1,1.867,1.9v-1.124C223.726,235.3,222.879,234.53,222.648,234.324Z"/><path d="M240.689,234.265h.866v1.755h2.975v-1.755h.865V238.7h-.865v-1.908h-2.975V238.7h-.866Z"/><path d="M249.163,234.155c1.951,0,2.639,1.146,2.639,2.359,0,.92-.542,2.292-2.639,2.292s-2.64-1.372-2.64-2.292C246.523,235.3,247.212,234.155,249.163,234.155Zm1.774,2.31c0-1.067-.762-1.566-1.774-1.566s-1.774.5-1.774,1.566c0,1.256.945,1.6,1.774,1.6S250.937,237.721,250.937,236.465Z"/><path d="M252.93,234.265h.914l2.963,3.2v-3.2h.829V238.7h-.792l-3.085-3.316V238.7h-.829Z"/><path d="M263.623,236.423v2.322H263.1l-.17-.457a2.733,2.733,0,0,1-1.659.518,2.331,2.331,0,1,1-.024-4.651,2.135,2.135,0,0,1,2.347,1.493h-.884c-.1-.225-.341-.749-1.359-.749a1.574,1.574,0,1,0-.073,3.139c.853,0,1.328-.3,1.536-.921h-1.555v-.694Z"/><path d="M267.4,234.265h.866v2.066l2.457-2.066h1.231l-2.115,1.755,2.328,2.676h-1.134l-1.822-2.164-.945.787V238.7H267.4Z"/><path d="M275.242,234.155c1.95,0,2.639,1.146,2.639,2.359,0,.92-.542,2.292-2.639,2.292s-2.64-1.372-2.64-2.292C272.6,235.3,273.291,234.155,275.242,234.155Zm1.774,2.31c0-1.067-.762-1.566-1.774-1.566s-1.774.5-1.774,1.566c0,1.256.945,1.6,1.774,1.6S277.016,237.721,277.016,236.465Z"/><path d="M279.145,234.265h.914l2.963,3.2v-3.2h.829V238.7h-.792l-3.085-3.316V238.7h-.829Z"/><path d="M290,236.423v2.322h-.524l-.17-.457a2.733,2.733,0,0,1-1.659.518,2.331,2.331,0,1,1-.024-4.651,2.135,2.135,0,0,1,2.347,1.493h-.884c-.1-.225-.341-.749-1.36-.749a1.574,1.574,0,1,0-.073,3.139c.854,0,1.329-.3,1.537-.921h-1.555v-.694Z"/><path d="M240.744,242.61h.866v4.432h-.866Z"/><path d="M243.241,242.61h.915l2.963,3.2v-3.2h.829v4.432h-.793l-3.084-3.316v3.316h-.83Z"/><path d="M250.778,243.354H248.8v-.744h4.828v.744h-1.981v3.688h-.866Z"/><path d="M254.637,242.61h3.974v.744H255.5v1.03h2.676v.744H255.5V246.3h3.182v.743h-4.048Z"/><path d="M260.071,242.61h2.664c1.049,0,1.805.238,1.805,1.323a1.256,1.256,0,0,1-1.238,1.305l1.359,1.8H263.6l-1.287-1.743h-1.371v1.743h-.866Zm2.536,1.969c.707,0,1.067-.1,1.067-.628s-.36-.621-1.067-.621h-1.67v1.249Z"/><path d="M266.019,242.61h.915l2.962,3.2v-3.2h.829v4.432h-.792l-3.085-3.316v3.316h-.829Z"/><path d="M273.847,242.61h.987l2.152,4.432h-.914l-.464-1.018h-2.554l-.469,1.018h-.921Zm1.42,2.67-.927-1.975-.926,1.975Z"/><path d="M278.718,243.354h-1.981v-.744h4.828v.744h-1.981v3.688h-.866Z"/><path d="M282.306,242.61h.866v4.432h-.866Z"/><path d="M287.32,242.5c1.951,0,2.639,1.146,2.639,2.359,0,.92-.542,2.292-2.639,2.292s-2.64-1.372-2.64-2.292C284.68,243.647,285.369,242.5,287.32,242.5Zm1.774,2.31c0-1.067-.762-1.567-1.774-1.567s-1.774.5-1.774,1.567c0,1.256.945,1.6,1.774,1.6S289.094,246.067,289.094,244.811Z"/><path d="M291.25,242.61h.914l2.963,3.2v-3.2h.829v4.432h-.792l-3.085-3.316v3.316h-.829Z"/><path d="M299.24,242.61h.988l2.152,4.432h-.915L301,246.024h-2.554l-.47,1.018h-.92Zm1.42,2.67-.926-1.975-.927,1.975Z"/><path d="M303.319,242.61h.865v3.664H307.4v.768h-4.078Z"/><path d="M242.4,250.956h.988l2.152,4.432h-.915l-.463-1.018H241.6l-.47,1.018h-.92Zm1.42,2.67-.926-1.975-.927,1.975Z"/><path d="M246.529,250.956h.866v4.432h-.866Z"/><path d="M249.19,250.956h2.664c1.048,0,1.8.238,1.8,1.323a1.255,1.255,0,0,1-1.237,1.3l1.359,1.8h-1.067l-1.286-1.743h-1.372v1.743h-.865Zm2.536,1.97c.707,0,1.066-.1,1.066-.628s-.359-.622-1.066-.622h-1.671v1.25Z"/><path d="M254.975,250.956h2.469c.75,0,1.981,0,1.981,1.36s-1.231,1.353-1.981,1.353h-1.6v1.719h-.866Zm2.658,1.97c.494,0,.926-.043.926-.616s-.432-.61-.926-.61h-1.792v1.226Z"/><path d="M262.609,250.847c1.951,0,2.64,1.146,2.64,2.359,0,.92-.543,2.292-2.64,2.292s-2.64-1.372-2.64-2.292C259.969,251.993,260.658,250.847,262.609,250.847Zm1.774,2.31c0-1.067-.762-1.567-1.774-1.567s-1.774.5-1.774,1.567c0,1.256.945,1.6,1.774,1.6S264.383,254.413,264.383,253.157Z"/><path d="M266.376,250.956h2.664c1.049,0,1.8.238,1.8,1.323a1.256,1.256,0,0,1-1.238,1.3l1.36,1.8H269.9l-1.286-1.743h-1.372v1.743h-.866Zm2.536,1.97c.707,0,1.067-.1,1.067-.628s-.36-.622-1.067-.622h-1.67v1.25Z"/><path d="M273.578,251.7H271.6v-.744h4.828v.744h-1.981v3.688h-.865Z"/></g></svg>